<svg width="195" height="194" viewBox="0 0 195 194" fill="none" xmlns="http://www.w3.org/2000/svg">
<path d="M34.6285 0.189951C18.0601 1.31033 8.17764 5.89855 3.38293 14.6748C2.02443 17.1557 0.905667 20.7569 0.372922 24.2781C-0.239735 28.5195 -0.0266373 38.0161 0.745844 41.3505C4.18205 55.9688 14.2243 64.6384 32.4975 68.6931L35.2944 69.3066L17.6605 69.3333L0 69.36V105.532V141.678L23.3875 141.571C48.4798 141.464 48.0536 141.491 54.7396 140.024C68.8307 136.903 75.9695 129.354 77.5411 116.042C77.9673 112.174 77.7009 104.625 77.035 101.638C73.8918 88.113 64.3557 78.5631 48.7462 73.3347L45.6829 72.321L61.7452 72.2943H77.7809V36.1488V0.00321883L56.8173 0.0565746C45.2567 0.0832502 35.2944 0.136599 34.6285 0.189951Z" fill="white"/>
<path d="M90.979 103.786C89.876 97.802 89.8765 91.6142 89.3603 24.0614L89.1738 -9.74132e-05H116.77H144.366V10.8036V21.6072H163.838H183.31L183.177 31.1304C183.044 41.5073 182.857 43.3212 181.392 48.0161C179.741 53.3779 176.917 58.0729 172.788 62.341C166.662 68.6631 159.336 72.291 150.493 73.358C149.268 73.4914 147.376 73.6248 146.311 73.6248H144.366V93.7885C124.734 96.2184 108.173 108.557 99.8413 125.644C95.8462 120.437 93.0334 113.978 91.4913 106.356C91.2976 105.402 91.1282 104.596 90.979 103.786ZM112.284 136.026C115.727 137.804 119.545 139.133 123.722 139.994C128.197 140.928 130.382 141.141 137.52 141.301L144.366 141.461V109.472C142.096 109.879 139.891 110.464 137.785 111.212C126.124 115.333 116.746 124.448 112.284 136.026Z" fill="white"/>
<g clip-path="url(#clip0_1647_3041)">
<path d="M109.455 151.299C109.455 169.855 121.353 185.578 137.785 191.386V111.213C126.124 115.334 116.746 124.45 112.284 136.027C110.458 140.763 109.455 145.912 109.455 151.299Z" fill="#007E2C"/>
<path d="M194.443 151.299C194.443 132.743 182.686 117.02 166.113 111.213V191.386C182.686 185.578 194.443 169.855 194.443 151.299Z" fill="#007E2C"/>
<path d="M137.785 191.383C142.176 192.942 146.992 193.791 151.95 193.791C156.908 193.791 161.724 192.942 166.115 191.383V111.211C161.724 109.653 156.908 108.803 151.95 108.803C149.37 108.803 146.83 109.035 144.367 109.475C142.096 109.881 139.892 110.463 137.785 111.211V191.383Z" fill="white"/>
</g>
<defs>
<clipPath id="clip0_1647_3041">
<rect x="109.459" y="108.799" width="84.9887" height="84.9887" rx="42.4944" fill="white"/>
</clipPath>
</defs>
</svg>
